<svg version="1.2" baseProfile="tiny" xmlns="http://www.w3.org/2000/svg" viewBox="0 0 150 115"><path fill-rule="evenodd" fill="#FFF" d="M41.9 47c.2 2.1.6 5.5 1.7 8.6 1.5 4 5 6.1 10.5 6.1h.4c.1.4.3.8.5 1.2 3.6 5.8 9.7 9.2 16.4 9.2 5.1 0 9.9-2 13.5-5.5h.5c1.2 0 2.5-.6 3.3-1.5.8-.9 1.1-2.2.9-3.4 4.9-.3 8-2.3 9.4-6 1.1-3 1.5-6.5 1.7-8.6 1.5-1.1 2.2-2.4 2.2-3.9v-1.6c0-1.7-1.2-3.1-2.9-3.3-.2 0-3.4-.5-7.3-.8.9-.2 1.7-.8 2.2-1.7l15.4-29.1c.7-1.4.4-3.1-.8-4.1-.6-.6-1.4-.8-2.2-.8-.7 0-1.4.2-1.9.6l-9 6.3-1.8-2.8c-.5-.8-1.3-1.3-2.3-1.5-.2 0-.4-.1-.6-.1-.7 0-1.5.2-2.1.7l-10.2 7.9-3.8-3.2c-.6-.5-1.4-.8-2.2-.8-.8 0-1.5.3-2.1.8L64.7 15l-.5-1.8c-.3-1.2-1.3-2.1-2.5-2.4-.3-.1-.5-.1-.8-.1-.9 0-1.9.4-2.5 1.1l-5.4 6-7.1-3.5c-.5-.2-1-.4-1.5-.4-.8 0-1.5.3-2.1.8-1 .8-1.5 2.2-1.1 3.5l4.6 17.3c.2.9.8 1.7 1.7 2.1-2.7.3-4.7.6-4.8.6-1.6.3-2.9 1.7-2.9 3.3v1.6c-.2 1.5.6 2.8 2.1 3.9M148.3 92.8c.1-.3.2-.7.2-1 0-2.9-1.1-5.6-3.2-7.7-2.1-2.1-4.7-3.2-7.5-3.2-1.5 0-2.8.3-4.1.9 0-.1.1-.2.1-.3 0-.1.1-.2.1-.3.4-1.8-.1-4.3-3.2-5.6-.1-.1-.3-.1-.4-.2-.5-.1-1-.2-1.5-.2-1.2 0-3.6.4-5.2 3.2 0 .1-.1.1-.1.2-.3.6-.6 1.5-.8 3.6v.2c-.5.3-1.4.8-2.9 1.5-1.1.5-2 1-2.8 1.5-.6-1.3-1.3-2.5-2.1-3.5-1.6-1.8-3.6-2.7-5.9-2.7-2.2 0-4.1 1.1-5.1 3-.4-1.9-1.9-3.4-4.1-4.1-2.1-.6-3.8-.9-5.2-.9-1.1 0-2.1.1-3.2.4-3.2.8-5.8 2.5-7.7 5.2-.4-1.9-2-3.8-5.1-3.8-1.1 0-2 .2-2.9.7-.6.4-1.2.8-1.7 1.3-.9-1.5-2.6-2.4-4.5-2.4-2 0-3.7.8-4.8 2.4-.4.6-.7 1.3-.9 2-1-.5-2.2-.8-3.6-1.1-.2-.5-.5-1-.9-1.4-1-1.2-2.4-1.8-3.9-1.8-1.3 0-2.6.4-3.8 1.3-.8.5-1.7 1.6-2.1 3.3-1.1-.5-2.4-1-4-1.3-.2-.5-.5-1-.9-1.4-1-1.2-2.4-1.8-3.9-1.8-1.3 0-2.6.4-3.8 1.3-.4.3-.9.7-1.3 1.3-1.2-.8-2.9-1.4-5.3-1.4-2.6 0-5 .6-7.2 1.8v-1.1c0-1.8-.3-3.5-.8-4.9v-.1c-.4-.9-1.6-2.9-4.9-2.9-2.1 0-3.8.9-4.8 2.3l-.2-.2c-.2-.2-.5-.4-.8-.6-1-.5-2.2-.8-3.3-.8-3 0-4.4 1.6-5 2.7-.9 1.6-1.3 3.6-1.3 6 0 .6 0 1.5.1 3 .1 1.3.1 2 .1 2.3 0 .1 0 .3-.1.6-.2.7-.3 1.1-.3 1.5-.1.6-.1 1.3.1 2.1 0 0 .2.6.2.7l.2 4.1c.2 2.5.6 4.4 1.5 5.8 1.3 2.2 3.6 3.4 6.4 3.4h.3c1.3 0 2.5-.9 3-2.1 0 .1.1.1.1.2 1.2 2.6 3.4 4.2 6.1 4.2.6 0 1.2-.1 1.8-.2 1.4-.3 2.4-1.4 2.6-2.8l.9.3c.1 0 .2 0 .3.1l3.4.6c.4.5.8 1 1.3 1.3.8.5 1.7.8 2.6.8.3 0 .7 0 1.2-.2.1.6.2.9.3 1.1.8 2.5 2.3 3.5 3.5 4 .8.3 1.8.5 2.7.5 4.1 0 5.1-2.7 5.1-4.3 0-1-.4-2.1-1.2-3.1 0-.1-.1-.1-.1-.2-.7-2.5-.8-3.8-.8-4.4 0-.3 0-.7.1-1.2l4.3-1.2c.1 0 .2-.1.3-.1h.1c0 .8-.1 1.6-.1 2.3 0 1.5.1 3 .3 4.4.3 2.1.5 2.9.6 3.3.7 2.5 2.3 3.5 3.5 4 .8.3 1.8.5 2.7.5 3.8 0 5-2.4 5.1-4 .1.3.2.6.4.9.6 1.3 2.2 3.4 5.9 3.4 3.4 0 6.3-2.2 8.6-6.5 1.6-3 2.6-6 2.8-8.8.1-1.7.7-3.6 1.8-5.7l.9-1.7c-.1.8-.2 1.6-.2 2.5 0 3.8 1.4 7.1 4 9.3 1.5 1.2 3.5 2.3 6.3 3.1 2.2.7 4.3 1 6.2 1 3.2 0 6-.9 8.3-2.6 1-.7 1.7-1.7 2-2.8.6.1 1.2.2 1.8.2 2.6 0 4.1-1 4.9-1.9.1-.1.1-.2.2-.2.1.1.2.2.3.4.4.4 1.3 1.2 3.7 2.8 1.3.9 2.8 1.3 4.6 1.3h.7c1.4 2.3 3.3 2.6 4.4 2.6h.3c.9 0 1.8-.3 2.7-.9 1.1-.7 1.6-1.5 1.9-2.2.8.7 1.8 1.3 2.8 1.8 1.2.5 2.5.8 4 .8.5 0 1.4-.1 4-.5 1.4-.2 2.6-1 3.5-2.1.8-1 1.2-2.3 1.2-3.5 0-1.7-.7-3.2-2-4.2 1.1-1.2 1.7-2.1 2.1-3.2m-82.4 8.5c-.5-.2-1-.2-1.5-.2-.8 0-1.7.2-2.4.7-1.6 1-2.5 2.6-2.5 4.5v.5c-.1-.3-.3-.5-.5-.8-.1-.1-.1-.1-.1-.2-.7-2.5-.8-3.8-.8-4.4 0-.3 0-.7.1-1.2l4.3-1.2c.1 0 .2-.1.3-.1 1.2-.5 2.3-1.1 3.2-1.9 0 .1.1.1.1.2.5 1.1.5 1.5.5 1.6-.4.9-.6 1.7-.7 2.5"/><path fill-rule="evenodd" fill="#86C48D" d="M83.7 40.8c-6.6.7-7 1.4-9.1 1.5-2.1.1-3.4 0-3.4 0s-1.3.1-3.4 0c-2.1-.1-2.5-.9-9.1-1.5-6.6-.7-15.7.8-15.7.8v1.7c0 .8 2.1 1.7 2.1 1.7s.1 5.3 1.6 9.4c1.7 4.6 7.1 4.1 13 3.4 6.4-.7 7.6-7 8.2-9.4.6-2.4 3.3-2.4 3.3-2.4s2.7 0 3.3 2.4c.6 2.4 1.8 8.7 8.2 9.4 5.9.7 11.3 1.2 13-3.4 1.5-4.1 1.6-9.4 1.6-9.4s2.2-1 2.1-1.8v-1.7c-.1 0-9.2-1.4-15.7-.7m-20.1 12c-1.7 3.1-10.6 3-12.9 2-2.5-1.1-3.2-6.2-2.9-9.1.3-2.9 5.8-3 5.8-3 10.9-.3 11.1 3.6 11.1 3.6s.6 3.4-1.1 6.5m28.1 2c-2.3 1.1-11.3 1.1-12.9-2-1.7-3.1-1-6.6-1-6.6s.1-3.9 11.1-3.6c0 0 5.5.1 5.8 3 .2 3-.5 8.1-3 9.2M49 34.6l7.6-6.6 4.3 4.8 5.4-6.5 11.2 8.3 3.8-4.5 3 4 4.3-5.4 3.1 5.4L107.1 5l-11.9 8.4-3.7-5.8-12.3 9.6-5.9-4.9-10.5 8.6-1.9-6.9-7.1 8-9.4-4.7z"/><path fill-rule="evenodd" fill="#0E1010" d="M60.9 48.8c0-1.5-1.2-2.7-2.7-2.7-1.5 0-2.7 1.2-2.7 2.7 0 1.5 1.2 2.7 2.7 2.7 1.5.1 2.7-1.2 2.7-2.7M84.2 51.6c1.5 0 2.7-1.2 2.7-2.7 0-1.5-1.2-2.7-2.7-2.7-1.5 0-2.7 1.2-2.7 2.7 0 1.4 1.2 2.7 2.7 2.7M83.6 58.4c-.9-.3-1.3 1.2-.4 1.5.2.1.3.2.4.3-2.8 3.8-7.2 6.3-12.3 6.3-5.1 0-9.5-2.5-12.3-6.3-.1-.2-.4-.3-.6-.3-.3 0-.5.1-.6.4-.1.2-.1.5 0 .7 2.8 4.6 7.8 7.6 13.5 7.6 5.4 0 10.2-2.7 13.1-6.9.1.3.2.5.2.8.2 1 1.7.6 1.5-.4-.2-1.3-1-3.2-2.5-3.7"/><path fill="#231F20" d="M5.3 92.1c0-.2-.1-.5-.3-1-.1-.4-.1-.7-.1-.8 0-.2.1-.6.3-1.1.1-.5.2-.9.3-1.3 0-.6 0-1.6-.1-2.8-.1-1.3-.1-2.3-.1-2.8 0-1.8.3-3.2.9-4.3.3-.6 1-.9 2-.9.6 0 1.2.1 1.8.4.8.7 1.1 1.4 1 2-.1.4-.3 1.4-.8 3.1-.4 1.3-.5 2.4-.5 3.2 0 .9.2 1.6.6 2.3.4.6 1.3 1 2.7 1 .7 0 1.1-.2 1.2-.5.4-1.1.6-2.6.6-4.4V81c0-1.1.1-2 .2-2.8.2-1.2 1-1.7 2.3-1.7.9 0 1.5.3 1.7.8.4 1.1.6 2.3.6 3.7 0 .8-.1 2.2-.4 4.2-.2 1.8-.2 3.2-.2 4.2 0 .2.3.5.7 1 .5.5.7.9.7 1.2 0 .3-.1.5-.4.8-.3.3-.5.5-.5.6-.1.7-.2 1.4-.2 2.1 0 1.1.2 2.7.6 4.8.4 2.1.6 3.7.6 4.8-.4.1-.8.1-1.1.1-1.4 0-2.4-.7-3-2.2-.4-.9-.8-2.5-1.1-4.7-.3-2.4-.6-4-.9-4.7-.3-.8-1-1.2-2.2-1.2-1 0-1.6.2-1.8.6-.4.6-.6 1.4-.6 2.3 0 .6.1 1.5.3 2.8.2 1.3.3 2.3.3 2.9 0 .8-.1 1.4-.3 2-1.7.1-3-.5-3.7-1.8-.5-.9-.9-2.3-1-4.3.1-1.6 0-3-.1-4.4M31.8 104.4c-.2-.2-.5-.5-.7-1-.2-.4-.4-.6-.6-.6-1.5-.3-3-.5-4.6-.8-1.7-.4-2.9-1.3-3.6-2.5-.5-.6-.7-1.4-.7-2.4 0-1.5.4-2.7 1.1-3.6 1.7-2.3 4.2-3.5 7.5-3.5 1.4 0 2.1 0 2.1.1.2-.3.3-.8.3-1.5 0-.8-.2-1.2-.6-1.3-.4-.1-.9-.2-1.3-.2-.7 0-1.6.2-2.5.5-.9.4-1.8.7-2.6 1-.1.1-.3.1-.4.1-.5 0-.8-.3-1.1-1-.2-.5-.3-1.1-.3-1.7 0-.4 0-.6.1-.7 1.9-1.3 4-2 6.4-2 2.5 0 4.2.9 5 2.7.5 1 .7 2.1.7 3.2 0 1-.2 2.3-.6 4-.4 1.9-.7 3.3-.8 4.2-.1 2.2-.3 3.6-.4 4.4-.3 1.8-.9 2.6-1.6 2.6-.3.2-.6.2-.8 0m-.8-5.3c.1-.4.3-1.1.6-2.2.3-.8.4-1.5.4-2 0-.6-.1-1.2-.4-1.8-1.5.3-2.9.6-4.3.9-1.7.5-2.5 1.5-2.6 3 0 .7.6 1.2 1.9 1.7 1.1.4 2.2.7 3.3.7.7 0 1-.1 1.1-.3M37.7 88.5c0-.2 0-.4-.2-.7-.2-.3-.3-.6-.3-.7 0-.1 0-.3.1-.3.4-.3.6-.9.6-1.9 0-.9.3-1.6.8-1.9.7-.5 1.3-.7 1.9-.7.6 0 1.1.2 1.4.7.2.2.4.6.4 1.2s.1.9.2 1c5.7.6 8.4 2.6 8.1 5.8-.3 2.4-1.6 4-4 5-2.1.6-4.2 1.2-6.3 1.7-.3 1.5-.5 2.8-.5 3.9 0 1.3.4 3.2 1.1 5.7 0 .1.2.4.6.9.3.5.5.8.5 1.1 0 .6-.6.9-1.8.9-.6 0-1.1-.1-1.5-.3-.7-.3-1.2-.9-1.5-1.8-.1-.4-.3-1.3-.5-2.7-.2-1.3-.3-2.6-.3-4 0-1.8.1-3.9.4-6.4.2-2.2.5-4.3.8-6.5m4.5.3c-.4.4-.7 1-1 1.8-.3.8-.4 1.6-.4 2.2 0 .7.1 1.1.4 1.2.3.1.6.2 1.1.2.9 0 1.8-.3 2.7-1 .9-.6 1.4-1.5 1.5-2.6.1-1-.3-1.6-1.5-1.9-.6-.3-1.2-.4-1.8-.4-.4.1-.8.2-1 .5M52.4 88.5c0-.2 0-.4-.2-.7-.2-.3-.3-.6-.3-.7 0-.1 0-.3.1-.3.4-.3.6-.9.6-1.9 0-.9.3-1.6.8-1.9.7-.5 1.3-.7 1.9-.7.6 0 1.1.2 1.4.7.2.2.4.6.4 1.2s.1.9.2 1c5.7.6 8.4 2.6 8.1 5.8-.3 2.4-1.6 4-4 5-2.1.6-4.2 1.2-6.3 1.7-.3 1.5-.5 2.8-.5 3.9 0 1.3.4 3.2 1.1 5.7 0 .1.2.4.6.9.3.5.5.8.5 1.1 0 .6-.6.9-1.8.9-.6 0-1.1-.1-1.5-.3-.7-.3-1.2-.9-1.5-1.8-.1-.4-.3-1.3-.5-2.7-.2-1.3-.3-2.6-.3-4 0-1.8.1-3.9.4-6.4.3-2.2.5-4.3.8-6.5m4.5.3c-.4.4-.7 1-1 1.8-.3.8-.4 1.6-.4 2.2 0 .7.1 1.1.4 1.2.3.1.6.2 1.1.2.9 0 1.9-.3 2.7-1 .9-.6 1.4-1.5 1.5-2.6.1-1-.3-1.6-1.5-1.9-.6-.3-1.2-.4-1.8-.4-.3.1-.7.2-1 .5M67.1 86.3c-.1-.5-.1-1-.2-1.6 0-.7.1-1.1.4-1.4.5-.7 1.1-1 2.1-1 .9 0 1.4.3 1.8 1 .4.9.6 2.1.6 3.6 0 2 0 3.2.1 3.7.1.2.1.3.3.3.1 0 .3-.2.6-.5l1.8-4.2c.8-1.6 1.7-2.7 2.8-3.3.3-.2.7-.3 1.2-.3 1.2 0 1.8.4 1.8 1.2 0 .2-.1.5-.2.8-1.2 2.1-2.3 4.3-3.5 6.4-1.3 2.6-2 4.9-2.2 7.1-.2 2.4-1 4.9-2.4 7.5-1.7 3.2-3.5 4.7-5.6 4.7-1.4 0-2.4-.5-2.9-1.5s-.7-1.8-.7-2.5c0-.8.3-1.3.9-1.6.2-.1.5-.2.7-.2.5 0 .9.2 1.3.6.4.4.6.8.7 1.3 1.3-1 2.1-2 2.5-2.9.3-1.3.5-2.6.8-3.9.1-.3.1-.5.1-.8 0-.7-.3-1.7-.9-2.9-.6-1.2-.9-2.2-.9-2.7-.3-1.5-.6-3.8-1-6.9"/><path fill="#86C48D" d="M92.1 81c.8-.2 1.6-.3 2.4-.3 1.1 0 2.6.3 4.3.7 1.2.3 1.8 1 1.8 2 0 .2-.1.5-.2.7-.2.5-.7.8-1.2.9-.6.2-1.1.3-1.6.4-.3.1-.6.1-1 .1s-1-.1-1.7-.3c-.7-.2-1.3-.3-1.6-.3-.3 0-.5 0-.7.1-2.7.9-4 3.1-4 6.4 0 .9.1 1.9.4 2.8.5 1.5 1.3 2.7 2.6 3.6 1.3.9 2.7 1.4 4.2 1.4.8 0 1.5-.1 2.3-.4.3-.1.9-.5 1.9-1.1.8-.5 1.5-.8 1.9-.8.3 0 .5.1.7.2 1.1.9 1.6 1.7 1.6 2.5 0 .5-.3 1-.8 1.4-1.8 1.3-3.9 2-6.3 2-1.6 0-3.4-.3-5.2-.8-2.3-.7-4-1.5-5.1-2.5-1.9-1.6-2.8-3.8-2.8-6.7 0-2.9.7-5.4 2.1-7.7 1.2-2.1 3.3-3.6 6-4.3M107.1 97.8c-2.3-1.4-3.5-3.5-3.5-6.5 0-.7.1-1.5.3-2.2.3-.9.7-1.9 1.4-2.9.8-1.1 1.2-1.8 1.3-2 .4-1 1.2-1.5 2.3-1.5 1.3 0 2.4.5 3.3 1.6.9 1.1 1.7 2.5 2.1 4.3.2.7.3 1.3.3 2 0 2.3-1.1 4.5-3.2 6.8-.5.6-1.3.8-2.4.8-.7 0-1.4-.1-1.9-.4m1.4-4.3c.2.1.4.1.6.1 1.3 0 1.9-.8 1.9-2.4 0-1.4-.5-2.6-1.5-3.7-.1-.1-.2-.1-.3-.1-.5 0-1 .5-1.7 1.4-.7.9-1 1.8-1 2.7.1 1 .7 1.7 2 2M115.3 93.7c0-1.6.6-3 1.8-4.1.8-.7 2.1-1.6 4.1-2.5 2-1 3.3-1.7 4-2.3.4-.3.6-1 .8-2.1.1-1.3.3-2.2.5-2.5.6-1 1.4-1.6 2.3-1.6.2 0 .4 0 .6.1 1 .4 1.4 1 1.2 1.7-1.3 3.6-1.9 7.5-1.9 11.9 0 3 .3 6.2.9 9.8 0 .2-.2.4-.6.7-.4.2-.8.4-1.1.4-.7.1-1.3-.4-1.8-1.3s-.9-1.4-1.1-1.5c-.3 0-.6 0-1.2.1-.5 0-.9.1-1.1.1-1.1 0-1.9-.2-2.7-.7-1.6-1.1-2.7-1.9-3.2-2.4-1-1.1-1.5-2.4-1.5-3.8m4.3-.6c.1.9.6 1.7 1.3 2.4.8.7 1.6 1.1 2.5 1.1.3 0 .7-.1 1-.2V95c0-.6.1-1.6.3-2.9.2-1.3.3-2.3.3-2.9-1.4 0-2.6.3-3.7 1-1.3.7-1.9 1.7-1.7 2.9M131.5 91.2c0-2 .5-3.6 1.7-4.9 1.2-1.3 2.7-2 4.5-2 1.9 0 3.7.7 5.2 2.2 1.5 1.5 2.2 3.2 2.2 5.2-.3.8-1.3 1.8-3.2 2.9-2.3 1.4-3.6 2.3-3.9 2.5-.5.2-.7.5-.7.7 0 .5.3.9.9 1.2.6.4 1.2.5 1.7.5.9 0 2.3-.5 4.1-1.4.5.4.8 1 .8 1.6 0 .5-.2 1.1-.5 1.5-.3.5-.8.7-1.3.8-1.8.3-3 .4-3.5.4-1 0-1.8-.2-2.6-.5-3.5-1.2-5.3-4.9-5.4-10.7m4.6 2.2c2.5-.1 4.1-1 4.6-2.7.1-.2.2-.5.2-.7 0-.6-.3-1.1-.9-1.5-.6-.4-1.3-.6-2.1-.6-.6 0-1.1.1-1.5.3-.8.4-1.2 1.3-1.2 2.7 0 1.7.3 2.5.9 2.5"/></svg>